%FSLAX34Y34*%
G04 Gerber Fmt 3.4, Leading zero omitted, Abs format*
G04 (created by PCBNEW (2014-02-26 BZR 4721)-product) date Wednesday, 06 July 2016 19:45:04*
%MOIN*%
G01*
G70*
G90*
G04 APERTURE LIST*
%ADD10C,0.005906*%
%ADD11C,0.055000*%
%ADD12R,0.065000X0.065000*%
%ADD13C,0.065000*%
%ADD14R,0.055000X0.055000*%
%ADD15R,0.062000X0.090000*%
%ADD16O,0.062000X0.090000*%
%ADD17C,0.070000*%
%ADD18O,0.060000X0.100000*%
%ADD19C,0.035000*%
%ADD20C,0.015748*%
G04 APERTURE END LIST*
G54D10*
G54D11*
X30314Y-39976D03*
X30314Y-37976D03*
G54D12*
X34842Y-44397D03*
G54D13*
X34842Y-43397D03*
G54D11*
X42929Y-36220D03*
X40929Y-36220D03*
G54D14*
X47334Y-29921D03*
G54D11*
X48334Y-29921D03*
G54D14*
X48909Y-32086D03*
G54D11*
X49909Y-32086D03*
G54D14*
X47334Y-34251D03*
G54D11*
X48334Y-34251D03*
G54D15*
X32236Y-40279D03*
G54D16*
X33236Y-40279D03*
X34236Y-40279D03*
X35236Y-40279D03*
X36236Y-40279D03*
X37236Y-40279D03*
X38236Y-40279D03*
X38236Y-37279D03*
X37236Y-37279D03*
X36236Y-37279D03*
X35236Y-37279D03*
X34236Y-37279D03*
X33236Y-37279D03*
X32236Y-37279D03*
G54D17*
X45700Y-29921D03*
X41700Y-29921D03*
X45700Y-32086D03*
X41700Y-32086D03*
X45700Y-34251D03*
X41700Y-34251D03*
G54D18*
X50788Y-46412D03*
X49788Y-46412D03*
X48788Y-46412D03*
X45788Y-46412D03*
X46788Y-46412D03*
X47788Y-46412D03*
X43788Y-46412D03*
X42788Y-46412D03*
X41788Y-46412D03*
X39788Y-46412D03*
X38788Y-46412D03*
X50788Y-27412D03*
X49788Y-27412D03*
X48788Y-27412D03*
X47788Y-27412D03*
X46788Y-27412D03*
X45788Y-27412D03*
X44788Y-27412D03*
X43788Y-27412D03*
X42188Y-27412D03*
X41188Y-27412D03*
X40188Y-27412D03*
X39188Y-27412D03*
X38188Y-27412D03*
X37188Y-27412D03*
X36188Y-27412D03*
X35188Y-27412D03*
X40788Y-46412D03*
G54D15*
X43972Y-40279D03*
G54D16*
X44972Y-40279D03*
X45972Y-40279D03*
X46972Y-40279D03*
X46972Y-37279D03*
X45972Y-37279D03*
X44972Y-37279D03*
X43972Y-37279D03*
G54D19*
X42716Y-37401D03*
X42716Y-40551D03*
X41338Y-40354D03*
X40157Y-34448D03*
X39763Y-39370D03*
X39763Y-38188D03*
G54D20*
X42929Y-36220D02*
X43503Y-36220D01*
X43972Y-36688D02*
X43972Y-37279D01*
X43503Y-36220D02*
X43972Y-36688D01*
X40788Y-42716D02*
X40788Y-42478D01*
X42929Y-37188D02*
X42929Y-36220D01*
X42716Y-37401D02*
X42929Y-37188D01*
X40788Y-42478D02*
X42716Y-40551D01*
X32236Y-40279D02*
X31177Y-40279D01*
X30874Y-39976D02*
X30314Y-39976D01*
X31177Y-40279D02*
X30874Y-39976D01*
X40788Y-46412D02*
X40788Y-42716D01*
X40788Y-42716D02*
X40788Y-42560D01*
X33688Y-41732D02*
X32236Y-40279D01*
X39960Y-41732D02*
X33688Y-41732D01*
X40788Y-42560D02*
X39960Y-41732D01*
X42788Y-46412D02*
X42788Y-45400D01*
X46972Y-41216D02*
X46972Y-40279D01*
X42788Y-45400D02*
X46972Y-41216D01*
X45700Y-29921D02*
X47334Y-29921D01*
X45700Y-32086D02*
X48909Y-32086D01*
X45700Y-34251D02*
X47334Y-34251D01*
X41240Y-40452D02*
X41437Y-40452D01*
X43653Y-39960D02*
X43972Y-40279D01*
X41929Y-39960D02*
X43653Y-39960D01*
X41437Y-40452D02*
X41929Y-39960D01*
X40188Y-27412D02*
X40188Y-34417D01*
X35236Y-40551D02*
X35236Y-40279D01*
X35826Y-41141D02*
X35236Y-40551D01*
X40551Y-41141D02*
X35826Y-41141D01*
X41338Y-40354D02*
X41240Y-40452D01*
X41240Y-40452D02*
X40551Y-41141D01*
X40188Y-34417D02*
X40157Y-34448D01*
X46972Y-37279D02*
X46972Y-39051D01*
X39641Y-40279D02*
X38236Y-40279D01*
X40354Y-39566D02*
X39641Y-40279D01*
X46456Y-39566D02*
X40354Y-39566D01*
X46972Y-39051D02*
X46456Y-39566D01*
X39188Y-27412D02*
X39188Y-34464D01*
X45125Y-35433D02*
X46972Y-37279D01*
X40157Y-35433D02*
X45125Y-35433D01*
X39188Y-34464D02*
X40157Y-35433D01*
X38236Y-37279D02*
X38854Y-37279D01*
X44078Y-39173D02*
X45972Y-37279D01*
X39960Y-39173D02*
X44078Y-39173D01*
X39763Y-39370D02*
X39960Y-39173D01*
X38854Y-37279D02*
X39763Y-38188D01*
X38188Y-27412D02*
X38188Y-37232D01*
X38188Y-37232D02*
X38236Y-37279D01*
X37236Y-37279D02*
X37236Y-38023D01*
X43472Y-38779D02*
X44972Y-37279D01*
X37992Y-38779D02*
X43472Y-38779D01*
X37236Y-38023D02*
X37992Y-38779D01*
X37188Y-27412D02*
X37188Y-37232D01*
X37188Y-37232D02*
X37236Y-37279D01*
X43788Y-27412D02*
X43788Y-32163D01*
X43788Y-32163D02*
X41700Y-34251D01*
X42188Y-27412D02*
X42188Y-28606D01*
X42519Y-31267D02*
X41700Y-32086D01*
X42519Y-28937D02*
X42519Y-31267D01*
X42188Y-28606D02*
X42519Y-28937D01*
X41188Y-27412D02*
X41188Y-29409D01*
X41188Y-29409D02*
X41700Y-29921D01*
X38788Y-46412D02*
X36857Y-46412D01*
X36857Y-46412D02*
X34842Y-44397D01*
M02*
