M48
;DRILL file {Pcbnew (2014-02-26 BZR 4721)-product} date Wednesday, 06 July 2016 19:45:12
;FORMAT={2:4/ absolute / inch / suppress leading zeros}
FMAT,2
INCH,TZ
T1C0.025
T2C0.032
%
G90
G05
M72
T1
X39764Y-38189
X39764Y-39370
X40157Y-34449
X41339Y-40354
X42717Y-37402
X42717Y-40551
T2
X30315Y-37976
X30315Y-39976
X32236Y-37280
X32236Y-40280
X33236Y-37280
X33236Y-40280
X34236Y-37280
X34236Y-40280
X34843Y-43398
X34843Y-44398
X35189Y-27413
X35236Y-37280
X35236Y-40280
X36189Y-27413
X36236Y-37280
X36236Y-40280
X37189Y-27413
X37236Y-37280
X37236Y-40280
X38189Y-27413
X38236Y-37280
X38236Y-40280
X38789Y-46413
X39189Y-27413
X39789Y-46413
X40189Y-27413
X40789Y-46413
X40929Y-36220
X41189Y-27413
X41701Y-29921
X41701Y-32087
X41701Y-34252
X41789Y-46413
X42189Y-27413
X42789Y-46413
X42929Y-36220
X43789Y-27413
X43789Y-46413
X43972Y-37280
X43972Y-40280
X44789Y-27413
X44972Y-37280
X44972Y-40280
X45701Y-29921
X45701Y-32087
X45701Y-34252
X45789Y-27413
X45789Y-46413
X45972Y-37280
X45972Y-40280
X46789Y-27413
X46789Y-46413
X46972Y-37280
X46972Y-40280
X47335Y-29921
X47335Y-34252
X47789Y-27413
X47789Y-46413
X48335Y-29921
X48335Y-34252
X48789Y-27413
X48789Y-46413
X48909Y-32087
X49789Y-27413
X49789Y-46413
X49909Y-32087
X50789Y-27413
X50789Y-46413
T0
M30
