%FSLAX34Y34*%
G04 Gerber Fmt 3.4, Leading zero omitted, Abs format*
G04 (created by PCBNEW (2014-02-26 BZR 4721)-product) date Wednesday, 06 July 2016 19:45:04*
%MOIN*%
G01*
G70*
G90*
G04 APERTURE LIST*
%ADD10C,0.005906*%
%ADD11C,0.055000*%
%ADD12R,0.065000X0.065000*%
%ADD13C,0.065000*%
%ADD14R,0.055000X0.055000*%
%ADD15R,0.062000X0.090000*%
%ADD16O,0.062000X0.090000*%
%ADD17C,0.070000*%
%ADD18O,0.060000X0.100000*%
G04 APERTURE END LIST*
G54D10*
G54D11*
X30314Y-39976D03*
X30314Y-37976D03*
G54D12*
X34842Y-44397D03*
G54D13*
X34842Y-43397D03*
G54D11*
X42929Y-36220D03*
X40929Y-36220D03*
G54D14*
X47334Y-29921D03*
G54D11*
X48334Y-29921D03*
G54D14*
X48909Y-32086D03*
G54D11*
X49909Y-32086D03*
G54D14*
X47334Y-34251D03*
G54D11*
X48334Y-34251D03*
G54D15*
X32236Y-40279D03*
G54D16*
X33236Y-40279D03*
X34236Y-40279D03*
X35236Y-40279D03*
X36236Y-40279D03*
X37236Y-40279D03*
X38236Y-40279D03*
X38236Y-37279D03*
X37236Y-37279D03*
X36236Y-37279D03*
X35236Y-37279D03*
X34236Y-37279D03*
X33236Y-37279D03*
X32236Y-37279D03*
G54D17*
X45700Y-29921D03*
X41700Y-29921D03*
X45700Y-32086D03*
X41700Y-32086D03*
X45700Y-34251D03*
X41700Y-34251D03*
G54D18*
X50788Y-46412D03*
X49788Y-46412D03*
X48788Y-46412D03*
X45788Y-46412D03*
X46788Y-46412D03*
X47788Y-46412D03*
X43788Y-46412D03*
X42788Y-46412D03*
X41788Y-46412D03*
X39788Y-46412D03*
X38788Y-46412D03*
X50788Y-27412D03*
X49788Y-27412D03*
X48788Y-27412D03*
X47788Y-27412D03*
X46788Y-27412D03*
X45788Y-27412D03*
X44788Y-27412D03*
X43788Y-27412D03*
X42188Y-27412D03*
X41188Y-27412D03*
X40188Y-27412D03*
X39188Y-27412D03*
X38188Y-27412D03*
X37188Y-27412D03*
X36188Y-27412D03*
X35188Y-27412D03*
X40788Y-46412D03*
G54D15*
X43972Y-40279D03*
G54D16*
X44972Y-40279D03*
X45972Y-40279D03*
X46972Y-40279D03*
X46972Y-37279D03*
X45972Y-37279D03*
X44972Y-37279D03*
X43972Y-37279D03*
M02*
